<svg xmlns="http://www.w3.org/2000/svg" width="600" height="600"><path d="M336.5 30.312c-3.85.502-8.275.925-9.834.94-2.06.019-2.469.285-1.5.974.934.663.608.786-1.088.409-3.977-.883-18.078 1.473-18.078 3.021 0 .739-.702 1.344-1.559 1.344s-1.281-.45-.941-1c.823-1.332.228-1.266-4.23.462-2.073.804-6.92 2.162-10.77 3.017-7.392 1.642-16.998 5.9-24.053 10.661-2.33 1.573-4.572 2.86-4.981 2.86-.41 0-2.888 1.319-5.508 2.931s-4.96 2.734-5.2 2.494c-.24-.241-1.254.465-2.252 1.569-.999 1.103-2.384 2.006-3.078 2.006s-1.411.391-1.595.87c-.183.478-3.933 3.259-8.333 6.179C215.186 81.205 208 87.265 208 90.555c0 1.293-2.511 4.768-6.25 8.65-8.16 8.471-15.729 18.987-21.362 29.68-3.508 6.66-5.826 9.664-10.213 13.239-3.121 2.543-6.651 6.455-7.845 8.694-1.922 3.605-1.996 4.214-.652 5.33 1.111.922 1.333 2.209.829 4.806-.379 1.95-.875 5.346-1.102 7.546-.228 2.2-.697 4.675-1.044 5.5-.346.825-.619 3.075-.605 5 .013 1.925-.475 4.115-1.085 4.866-1.896 2.336-3.518 8.018-2.395 8.393 1.201.4-.698 9.746-2.861 14.072-.778 1.557-1.415 3.668-1.415 4.691 0 1.023-.481 2.157-1.068 2.52-.588.363-.837 1.263-.554 2 .282.736-.652 3.053-2.077 5.148-1.82 2.677-2.66 5.341-2.824 8.958-.128 2.831-.491 5.565-.806 6.076-.316.511.529 3.108 1.877 5.772 1.349 2.664 2.452 5.373 2.452 6.02 0 .647.706 2.593 1.57 4.323.863 1.731 1.287 4.036.942 5.122-.403 1.27.28 3.31 1.909 5.707l2.535 3.731-2.522 4.304c-3.158 5.389-4.731 17.583-3.497 27.115 1.343 10.38 13.459 36.594 21.428 46.365 2.549 3.125 4.635 6.578 4.635 7.673 0 2.892 4.782 8.144 7.415 8.144 2.24 0 4.992 2.533 7.335 6.75 2.704 4.868 3.228 5.905 5.18 10.25 1.972 4.392 2.64 5.568 6.393 11.253 1.428 2.162 1.946 5.531 2.391 15.522l.567 12.762-6.89 9.251c-3.79 5.088-9.366 12.955-12.391 17.481-7.996 11.966-13.946 17.473-24.402 22.586-4.895 2.393-11.645 6.019-15 8.055-3.354 2.037-10.598 5.66-16.098 8.051-5.5 2.391-12.902 5.88-16.448 7.754-6.691 3.536-35.434 15.28-37.421 15.291-.622.004-2.378.657-3.903 1.452-1.524.795-7.599 3.094-13.5 5.108-10.352 3.534-14.61 5.506-24.228 11.223-2.475 1.471-11.25 5.214-19.5 8.317l-15 5.643-.264 31.625L-.028 600h191.937l.73-3.75c.402-2.062.719-6.112.704-9-.014-2.888.271-5.25.635-5.25 1.348 0 4.685 4.709 7.975 11.258 1.864 3.708 3.747 6.742 4.186 6.742 1.057 0 .025-2.668-2.767-7.152-1.25-2.008-3.944-6.93-5.986-10.937l-3.712-7.284.054-14.564c.041-10.901.468-15.695 1.697-19.063 1.109-3.041 1.829-9.363 2.221-19.5.491-12.715.86-15.294 2.425-16.93 1.811-1.895 1.883-1.843 3.887 2.832 1.123 2.62 2.042 5.125 2.042 5.567 0 .441.672 2.091 1.494 3.667.821 1.575 1.496 3.724 1.5 4.776.003 1.052.681 4.202 1.505 7 .825 2.798 2.477 8.46 3.671 12.581 1.958 6.753 2.791 8.088 8.427 13.5 6.226 5.979 16.712 19.755 17.909 23.527.983 3.097 2.818 2.407 2.023-.76-.378-1.507-1.028-2.969-1.443-3.25-.415-.28-3.134-4.02-6.042-8.309-2.907-4.289-7.469-9.679-10.137-11.977-5.19-4.471-6.067-6.526-10.844-25.404-1.138-4.498-4.113-14.356-6.609-21.906-2.497-7.55-4.355-14.444-4.128-15.321.245-.945.72-.271 1.168 1.657.868 3.731 2.439 4.325 2.646 1 .077-1.238.327-4.05.556-6.25.228-2.2.503-4.955.61-6.123.107-1.167.72-1.921 1.363-1.674 1.43.549 2.816-9.147 1.991-13.929-1.313-7.612-1.939-9.774-2.831-9.774-.519 0-.806-1.913-.636-4.25.303-4.201.347-4.246 3.777-3.907 3.592.356 10.03 5.905 10.03 8.645 0 .74.359 1.495.797 1.679 3.208 1.342 26.238 36.13 34.182 51.634 2.339 4.565 4.475 8.078 4.748 7.806.574-.574-4.976-12.334-8.463-17.93-1.31-2.103-2.222-4.302-2.028-4.886.195-.585 4.384 4.28 9.309 10.811 4.925 6.53 12.612 15.48 17.083 19.888 5.837 5.757 7.81 8.304 7 9.042-.621.565-3.378 2.573-6.128 4.463-8.588 5.901-15.934 14.218-25.72 29.12-14.727 22.426-16.047 24.781-13.799 24.612 1.034-.078 1.679-.468 1.433-.865-.245-.398-.046-.971.443-1.274.49-.302 1.188 1.692 1.551 4.431.678 5.111 1.994 6.441 3.057 3.09.515-1.62.951-1.727 3.06-.75 1.353.628 2.463 1.478 2.467 1.891.004.413 2.468.75 5.474.75h5.467l-2.091-3.543c-1.149-1.948-1.841-3.792-1.536-4.097.305-.304 1.495 1.29 2.645 3.543l2.09 4.097h38.479c21.164 0 38.48-.229 38.48-.51 0-1.033-9.118-17.167-12.75-22.558l-7.75-11.504c-2.2-3.264-6.25-8.716-9-12.113-2.75-3.398-6.682-8.648-8.737-11.668-3.444-5.06-4.15-5.57-9-6.505l-5.263-1.015 5 .18c4.988.179 11.5-1.762 11.5-3.428 0-.484.563-.882 1.25-.885.688-.003 4.4-2.483 8.25-5.51 8.461-6.655 26.519-21.186 31.903-25.671 5.098-4.248 3.507-1.435-4.349 7.687-3.315 3.85-6.034 7.384-6.041 7.853-.007.469 1.225-.603 2.737-2.382 1.512-1.779 4.464-5.088 6.558-7.353 2.095-2.265 5.664-6.818 7.932-10.118 4.128-6.006 8.063-11.282 12.757-17.106 1.377-1.708 3.403-4.408 4.503-6 1.1-1.592 3.733-4.643 5.85-6.782 2.118-2.138 4.299-5.175 4.848-6.75.549-1.574 1.404-2.862 1.9-2.862 1.334 0 1.102 1.27-.703 3.847-1.61 2.297-2.393 9.24-2.727 24.153-.134 5.983.127 7.5 1.291 7.5.977 0 1.842-1.911 2.618-5.784 1.307-6.524 2.094-7.868 2.993-5.109.34 1.041 1.127 3.243 1.75 4.893s1.219 3.579 1.323 4.286c.105.707.764 3.524 1.465 6.259.986 3.847 1.005 5.242.083 6.164-.921.921-1.191.58-1.191-1.509 0-1.485-.44-2.7-.977-2.7-.537 0-.875 1.74-.75 3.868.155 2.647.627 3.715 1.496 3.385 1.478-.561.637 2.062-2.872 8.963-2.159 4.245-9.663 15.822-10.879 16.784-.348.275-3.487 4.325-6.976 9-3.49 4.675-7.164 9.4-8.167 10.5-2.391 2.625-6.765 8.087-10.175 12.706-1.504 2.039-4.715 5.863-7.136 8.499-2.42 2.636-4.276 4.917-4.123 5.069.552.553 15.236-14.401 18.926-19.274 2.083-2.75 5.455-6.8 7.493-9 2.039-2.2 4.792-5.575 6.118-7.5 1.326-1.925 4.259-5.587 6.519-8.139 2.26-2.551 5.584-7.051 7.387-10 1.803-2.948 4.373-7.161 5.711-9.361 1.976-3.249 2.32-3.501 1.834-1.344-.574 2.549 1.551 7.307 4.048 9.063.682.48.606 1.392-.227 2.737-1.792 2.891-1.636 4.609.274 3.024 3.2-2.655 3.076-1.608-1.957 16.52-1.374 4.95-2.513 10.323-2.532 11.94-.094 7.997-4.954 24.56-7.206 24.56-.456 0-.829.464-.829 1.032 0 .567-2.42 4.279-5.377 8.25-2.957 3.97-5.956 8.343-6.664 9.718-2.641 5.132 2.128-.206 8.041-9 5.443-8.096 8.613-11.768 9.401-10.893.509.566-1.11 16.971-1.939 19.648l-.698 2.254 106.868-.254L600.5 599.5l.061-32c.034-17.6-.099-28.962-.295-25.25-.197 3.712-.641 6.75-.988 6.75-1.027 0-43.534-16.119-46.501-17.633-1.498-.765-6.448-2.917-11-4.783-4.552-1.867-13.452-5.634-19.777-8.372-6.325-2.739-22.3-9.583-35.5-15.209-46.796-19.947-42.337-16.936-71.866-48.529-8.726-9.336-18.063-19.046-20.75-21.577-2.686-2.532-4.884-5.065-4.884-5.628 0-.563-.675-1.584-1.5-2.269-2.665-2.212-1.638-4.419 6.065-13.037 7.846-8.777 17.235-23.516 19.407-30.463.687-2.2 2.325-5.88 3.639-8.178 1.314-2.298 2.389-4.841 2.389-5.651 0-.811 1.575-2.403 3.5-3.538 2.225-1.313 3.5-2.827 3.5-4.155 0-1.15 1.387-4.877 3.082-8.284 2.154-4.33 3.182-8 3.417-12.194.427-7.615 2.402-15.872 6.384-26.683 3.336-9.056 5.043-21.283 5.091-36.46.02-6.299.366-8.273 1.526-8.719.825-.316 1.5-1.209 1.5-1.984 0-.775.675-1.969 1.5-2.654.825-.685 1.5-2.54 1.5-4.122 0-1.583.345-2.878.767-2.878.422 0 .813-1.741.868-3.868.064-2.429.846-4.613 2.1-5.867 2.694-2.694 2.917-11.036.416-15.517-1.96-3.511-2.753-16.258-1.076-17.294.509-.315.925-1.895.925-3.513 0-1.618.394-2.941.875-2.941 1.036 0 2.453-5.588 2.193-8.644-.101-1.179.518-3.822 1.374-5.872.857-2.051 1.558-4.798 1.558-6.106 0-1.308.45-2.378 1-2.378s1-.862 1-1.917c0-1.054.558-2.102 1.241-2.33.892-.297.752-.903-.5-2.155-1.912-1.912-2.361-5.598-.682-5.598.582 0 .776-.457.431-1.016-.346-.559-1.016-.777-1.49-.484-.474.293-1.115.122-1.425-.379-.31-.501.109-1.169.931-1.485.822-.315 1.487-1.15 1.479-1.855-.011-.901-.314-.836-1.019.219-.869 1.298-1.203 1.239-2.485-.441-1.922-2.519-1.91-4.16.019-2.559 2.623 2.177 1.797-1.462-1.52-6.692-1.661-2.619-2.775-5.4-2.476-6.18.299-.779-.204-2.244-1.118-3.254-1.347-1.488-1.426-2.121-.415-3.339 1.273-1.535 1.213-1.576-5.888-4.097-1.08-.384-1.14-.781-.25-1.671 1.684-1.684 1.434-3.084-.423-2.371-2.905 1.115-3.779-.606-1.296-2.552 2.58-2.021 2.686-1.808-2.777-5.628-1.642-1.148-1.518-1.238 1.163-.843l3 .442-3-2.402c-1.937-1.551-2.451-2.405-1.45-2.408.853-.003 2.083.527 2.733 1.178.651.651 1.458.909 1.793.574.336-.335-.766-1.321-2.449-2.191-1.977-1.023-2.859-2.101-2.495-3.05.367-.956-.69-2.208-3.034-3.591-4.297-2.535-4.611-3.768-.848-3.322 1.641.194 1.944.099.75-.236-2.481-.696-4.387-2.367-2.7-2.367 1.725 0 1.482-2.955-.3-3.638-.825-.317-1.5-1.061-1.5-1.655 0-.593-.977-2.118-2.171-3.389-1.193-1.27-1.835-2.646-1.425-3.056.41-.41 1.185.038 1.721.996 1.049 1.875 2.875 2.362 2.875.768 0-.536-1.325-1.66-2.944-2.497-2.912-1.506-3.972-3.016-7.912-11.271-1.561-3.271-2.421-4.089-3.758-3.576-1.321.507-1.583.274-1.103-.976.346-.903.293-1.85-.119-2.105-1.429-.883-1.049 3.645.504 6.016 1.527 2.33 1.495 2.383-1.47 2.383-1.667 0-3.235.563-3.484 1.25-.26.721-.999.086-1.743-1.5-.711-1.513-1.628-2.75-2.038-2.75-.41 0-1.064-2.362-1.454-5.25-.39-2.888-1.137-6.062-1.659-7.055-1.432-2.723-.509-4.241 1.411-2.321.903.903 1.885 1.248 2.182.767.297-.48-.396-1.72-1.539-2.755-1.143-1.035-2.719-3.12-3.502-4.634-.783-1.513-1.917-2.752-2.52-2.752-.746 0-.711.464.108 1.452.663.799 1.044 2.261.847 3.25-.246 1.237-1.106.262-2.756-3.125-1.318-2.708-3.107-5.688-3.974-6.622-.867-.935-3.602-4.261-6.077-7.39-2.475-3.13-6.075-6.567-8-7.638-4.321-2.405-6.819-4.007-9.097-5.836-.966-.775-3.026-1.5-4.579-1.611-1.553-.111-5.299-.886-8.324-1.722-7.305-2.02-16.921-2.565-25.5-1.446m57.421 18.048c1.331 1.448 2.614 2.439 2.85 2.203.717-.718-.756-2.487-3.077-3.693-2.092-1.088-2.081-1.019.227 1.49m4.311 5.64c.687 1.1 1.607 2 2.044 2 .437 0 .313-.9-.276-2s-1.508-2-2.044-2c-.539 0-.416.892.276 2M402 73.378c0 4.12 1.525 4.888 2.244 1.128.271-1.418-.11-2.98-.884-3.622-1.104-.917-1.36-.447-1.36 2.494m12 1.416c0 .529.727 1.564 1.615 2.302 1.398 1.16 1.566 1.086 1.25-.545-.376-1.944-2.865-3.469-2.865-1.757M425 84c0 .55.45 1 1 1s1-.45 1-1-.45-1-1-1-1 .45-1 1m-17.5 2c-.34.55-.141 1 .441 1S409 86.55 409 86s-.198-1-.441-1-.719.45-1.059 1m9.5 3.883c0 .486.788 1.11 1.75 1.387.962.277 2.538.827 3.5 1.224.987.406 1.75.28 1.75-.289 0-.555-1.417-1.503-3.149-2.107-3.797-1.324-3.851-1.327-3.851-.215M403.5 93c.34.55.816 1 1.059 1s.441-.45.441-1-.477-1-1.059-1-.781.45-.441 1m5.75-.359c-2.196.923-1.338 2.519 1 1.861 1.467-.413 1.803-.321.966.262-.706.493-.995 1.647-.643 2.566.361.94.157 1.67-.466 1.67-1.853 0-1.233 1.995.643 2.07 1.496.06 1.46.195-.25.93-1.59.683-1.205.874 1.872.93 3.128.056 3.658.329 2.756 1.416-.906 1.091-.41 1.302 2.628 1.118 2.39-.145 3.744-.722 3.744-1.596 0-.752-.728-1.316-1.617-1.251-.889.064-1.605-.386-1.592-1 .066-3.031-.473-5.273-1.635-6.801-1.393-1.832-5.412-3.012-7.406-2.175M420 95c0 .55.563 1.007 1.25 1.015.847.011.767.357-.25 1.076-1.135.803-1.194 1.185-.244 1.571.691.28 1.031.873.756 1.319-.275.445.172 1.067.994 1.383.907.348 1.494-.003 1.494-.895 0-2.664 1.693-1.529 2.639 1.768.511 1.781 1.813 3.693 2.895 4.25 1.081.557 1.966 1.651 1.966 2.43 0 .779.504 1.584 1.119 1.789.707.236.94-.562.633-2.166-.267-1.397-.883-2.54-1.369-2.54-.485 0-.883-.848-.883-1.883 0-1.043-.893-2.117-2-2.407a2.662 2.662 0 01-2-2.591c0-1.278-1.126-2.65-2.95-3.593-3.467-1.793-4.05-1.869-4.05-.526m-14.5 6c-.34.55-.141 1 .441 1s1.059-.45 1.059-1-.198-1-.441-1-.719.45-1.059 1m-47 160c-.34.55-.141 1 .441 1s1.059-.45 1.059-1-.198-1-.441-1-.719.45-1.059 1M209.41 440.627c.344.894.155 2.193-.42 2.885-.782.942-.381 1.424 1.601 1.922 3.307.83 4.472-.183 2.157-1.876-.961-.703-1.748-2.016-1.748-2.918 0-.902-.498-1.64-1.107-1.64-.611 0-.828.728-.483 1.627m173.669 19.956c.048 1.165.285 1.402.604.605.289-.722.253-1.585-.079-1.917-.332-.332-.568.258-.525 1.312m-185.064 33c.009 1.054.472 2.592 1.031 3.417.741 1.095.834.691.344-1.5-.823-3.677-1.395-4.475-1.375-1.917m2.064 7c.048 1.165.285 1.402.604.605.289-.722.253-1.585-.079-1.917-.332-.332-.568.258-.525 1.312m.632 5.416c-.288 1.099-.115 2.251.383 2.559.498.308.906-.592.906-1.999 0-3.064-.57-3.312-1.289-.56m131.956 9.668c-.367.366-.667 1.131-.667 1.7 0 .626.466.567 1.183-.15.651-.651.951-1.416.667-1.7-.284-.285-.817-.217-1.183.15m-70.122 6.583c.374 1.237 1.079 2.678 1.567 3.2.489.522.888 1.437.888 2.033 0 2.468 7.262 14.655 8.184 13.733.609-.609-.282-2.91-2.457-6.336-1.878-2.959-4.221-7.518-5.207-10.13-1.778-4.714-4.279-6.815-2.975-2.5m63.629.882c-1.279 1.577-1.954 2.854-1.5 2.837.929-.036 4.716-4.939 4.174-5.406-.191-.165-1.395.991-2.674 2.569M399.158 522c0 1.375.227 1.938.504 1.25.278-.687.278-1.812 0-2.5-.277-.687-.504-.125-.504 1.25m-82.134 10.475c-2.974 3.012-5.166 5.716-4.872 6.01.294.294 3.074-2.17 6.177-5.475 7.056-7.516 6.012-7.944-1.305-.535m63.014-.475c-.603 1.875-.605 14-.002 14 1.936 0 2.512-7.167.964-12-.44-1.375-.873-2.275-.962-2m-170.053 4.691c-.013 1.555-.167 1.598-1.095.309-.897-1.248-.979-1.192-.484.332.327 1.007.594 2.77.594 3.916 0 2.714.833 1.821 1.957-2.099.541-1.885.529-3.349-.031-3.695-.509-.314-.933.242-.941 1.237M.446 568.5c.001 17.6.137 24.659.303 15.687.165-8.972.165-23.372-.001-32C.581 543.559.446 550.9.446 568.5m373.206-27.834c-1.017 1.359-1.615 2.704-1.33 2.989.285.285 1.29-.66 2.234-2.099 2.225-3.396 1.503-4.107-.904-.89m-66.656 1.838c-1.289 1.373-1.886 2.496-1.325 2.496 1.277 0 4.824-3.838 4.16-4.502-.269-.27-1.545.633-2.835 2.006m64.004 5.18c0 2.445 3.148 13.649 4.149 14.766.48.536.851-1.536.851-4.75 0-3.135.45-5.7 1-5.7 1.57 0 1.18-1.429-1.039-3.811-2.425-2.603-4.961-2.861-4.961-.505m-36.361 31.424c-.964 1.127-1.581 2.567-1.37 3.2.211.633 1.198-.091 2.193-1.61 2.19-3.341 1.62-4.443-.823-1.59M246 593.059c0 .582.45.781 1 .441s1-.816 1-1.059-.45-.441-1-.441-1 .477-1 1.059m-12.408 4.441c-1.255 1.915-1.328 2.5-.315 2.5.728 0 1.863-.54 2.523-1.2.933-.933 1.2-.933 1.2 0 0 .66.408 1.2.906 1.2.498 0 .386-1.121-.25-2.492-1.449-3.124-2.021-3.125-4.064-.008m23.372-.664c.659 1.284 1.472 2.061 1.807 1.726.336-.335-.203-1.386-1.197-2.336-1.728-1.65-1.755-1.623-.61.61" fill="undefined" fill-rule="evenodd"/></svg>